<?xml version="1.0" encoding="utf-8"?>
<svg version="1.0" xmlns="http://www.w3.org/2000/svg" width="500.000000pt" height="500.000000pt" viewBox="0 0 500.000000 500.000000" preserveAspectRatio="xMidYMid meet">
  <g transform="matrix(0.115479, 0, 0, -0.116592, -68.260941, 576.158203)" fill="#000000" stroke="none" style="">
    <path d="M2375 4580 c-9 -15 7 -40 27 -40 14 0 19 6 16 22 -3 21 -33 34 -43 18z" style="paint-order: fill; fill: rgb(0, 231, 252);"/>
    <path d="M2460 4565 c0 -18 5 -25 20 -25 15 0 20 7 20 25 0 18 -5 25 -20 25 -15 0 -20 -7 -20 -25z" style="paint-order: fill; fill: rgb(0, 231, 252);"/>
    <path d="M2520 4565 c0 -18 5 -25 20 -25 15 0 20 7 20 25 0 18 -5 25 -20 25 -15 0 -20 -7 -20 -25z" style="paint-order: fill; fill: rgb(0, 231, 252);"/>
    <path d="M2600 4564 c0 -17 6 -24 20 -24 13 0 20 7 20 19 0 10 -9 21 -20 24 -16 4 -20 0 -20 -19z" style="paint-order: fill; fill: rgb(0, 231, 252);"/>
    <path d="M2294 4565 c-8 -20 4 -35 27 -35 14 0 19 7 19 25 0 18 -5 25 -20 25 -11 0 -23 -7 -26 -15z" style="paint-order: fill; fill: rgb(0, 231, 252);"/>
    <path d="M2677 4559 c-3 -12 0 -22 8 -25 20 -8 35 4 35 27 0 26 -36 25 -43 -2z" style="paint-order: fill; fill: rgb(0, 231, 252);"/>
    <path d="M2212 4548 c2 -15 10 -23 23 -23 30 0 27 39 -3 43 -20 3 -23 0 -20 -20z" style="paint-order: fill; fill: rgb(0, 231, 252);"/>
    <path d="M2757 4549 c-3 -13 0 -22 9 -26 20 -7 38 11 31 31 -9 23 -34 20 -40 -5z" style="paint-order: fill; fill: rgb(0, 231, 252);"/>
    <path d="M2142 4552 c-18 -12 -4 -42 19 -42 20 0 23 8 13 34 -7 18 -13 19 -32 8z" style="paint-order: fill; fill: rgb(0, 231, 252);"/>
    <path d="M2835 4539 c-8 -24 -7 -26 20 -31 23 -4 34 30 13 43 -20 13 -26 11 -33 -12z" style="paint-order: fill; fill: rgb(0, 231, 252);"/>
    <path d="M2058 4534 c-6 -5 1 -44 7 -44 17 0 35 16 35 31 0 18 -29 27 -42 13z" style="paint-order: fill; fill: rgb(0, 231, 252);"/>
    <path d="M2917 4533 c-4 -3 -7 -15 -7 -25 0 -13 7 -18 25 -18 29 0 36 34 9 44 -19 7 -19 7 -27 -1z" style="paint-order: fill; fill: rgb(0, 231, 252);"/>
    <path d="M1980 4495 c0 -27 1 -28 24 -19 24 9 20 44 -4 44 -15 0 -20 -7 -20 -25z" style="paint-order: fill; fill: rgb(0, 231, 252);"/>
    <path d="M2996 4512 c-14 -14 -5 -42 14 -42 11 0 20 2 20 4 0 2 3 11 6 19 5 14 -29 31 -40 19z" style="paint-order: fill; fill: rgb(0, 231, 252);"/>
    <path d="M1911 4491 c-14 -9 -9 -41 6 -41 19 1 33 18 27 33 -7 19 -13 21 -33 8z" style="paint-order: fill; fill: rgb(0, 231, 252);"/>
    <path d="M2305 4489 c-269 -25 -580 -136 -810 -290 -262 -175 -468 -405 -609 -679 -156 -304 -225 -641 -198 -976 12 -152 29 -247 42 -239 5 3 11 1 14 -4 3 -5 -30 -7 -77 -5 l-82 4 0 -340 0 -340 216 0 217 0 55 -67 c216 -264 475 -454 767 -566 213 -81 355 -108 598 -114 279 -8 468 21 692 104 305 113 597 327 795 581 48 63 50 63 95 61 25 -1 123 -1 218 0 l172 1 0 340 0 340 -25 0 c-14 0 -25 4 -25 9 0 5 -9 11 -20 14 -13 3 -20 0 -20 -9 0 -8 -9 -14 -20 -14 -11 0 -20 2 -20 3 0 2 7 48 15 103 22 149 20 433 -5 581 -85 497 -366 928 -795 1218 -172 116 -466 231 -685 269 -111 19 -378 27 -505 15z m475 -53 c526 -87 957 -380 1244 -844 119 -191 191 -392 231 -637 22 -135 23 -408 1 -537 -19 -114 -19 -121 -7 -113 5 3 13 0 17 -6 5 -9 0 -10 -17 -6 -13 4 -61 7 -107 7 -77 0 -82 1 -73 18 5 10 17 70 27 133 24 165 15 434 -19 579 -100 419 -348 777 -697 1005 -303 198 -615 277 -1005 254 -295 -17 -595 -127 -835 -308 -316 -237 -524 -555 -617 -941 -34 -141 -44 -453 -19 -607 8 -55 18 -107 22 -116 5 -15 -4 -17 -79 -17 l-84 0 -12 58 c-46 239 -35 540 29 777 106 394 327 726 643 963 280 210 576 321 942 356 74 7 329 -4 415 -18z m6 -186 c311 -54 601 -207 834 -440 379 -379 541 -915 438 -1447 l-12 -63 -300 0 c-261 -1 -1414 -1 -2467 0 l-327 0 -11 47 c-48 209 -42 515 14 733 142 558 600 1011 1160 1149 219 54 440 60 671 21z m1584 -2287 l0 -303 -1873 0 -1873 0 -1 297 c-1 163 0 299 2 302 2 3 845 6 1874 6 l1871 0 0 -302z m-3011 -422 c160 -163 400 -313 616 -388 306 -105 672 -111 983 -17 255 77 500 224 682 407 l75 76 102 3 c57 2 103 1 103 -1 0 -11 -118 -146 -187 -213 -334 -330 -774 -504 -1262 -499 -510 4 -988 228 -1324 618 -39 47 -73 87 -75 91 -1 4 46 5 104 4 l106 -4 77 -77z m2321 78 c0 -4 -35 -40 -78 -81 -223 -213 -501 -358 -802 -419 -146 -29 -381 -36 -516 -15 -60 10 -136 24 -169 32 -195 48 -417 156 -585 285 -77 59 -222 194 -215 200 6 7 2365 4 2365 -2z" style="paint-order: fill; fill: rgb(0, 231, 252);"/>
    <path d="M2366 4029 c-15 -17 -34 -45 -42 -63 -9 -17 -33 -51 -54 -76 -67 -81 -71 -104 -24 -135 22 -14 23 -17 9 -38 -8 -13 -23 -57 -33 -98 -11 -41 -25 -84 -33 -96 -11 -19 -10 -28 7 -70 15 -38 26 -50 51 -57 36 -11 46 -40 32 -90 -12 -40 -11 -101 0 -124 15 -27 52 -210 61 -299 6 -56 19 -104 41 -155 37 -83 41 -127 16 -211 -25 -89 4 -129 86 -119 51 6 59 25 48 106 -8 57 -7 74 11 123 15 43 23 97 28 203 8 152 33 293 58 322 14 17 13 60 -4 163 -4 24 1 19 25 -25 44 -80 56 -129 37 -143 -13 -11 -13 -19 -1 -71 14 -58 14 -60 -10 -81 -12 -12 -30 -36 -39 -53 -14 -28 -13 -45 14 -243 17 -118 37 -227 45 -242 25 -48 20 -57 -30 -57 -25 0 -45 -4 -45 -10 0 -6 30 -10 71 -10 70 0 158 -19 212 -47 16 -8 34 -12 40 -10 16 6 -88 54 -135 62 -21 4 -38 11 -38 15 0 13 52 25 110 25 48 0 55 -2 55 -20 0 -16 9 -21 45 -27 68 -10 102 -9 95 2 -3 6 -22 10 -41 10 -41 0 -57 26 -29 46 24 18 35 18 35 -1 0 -17 49 -22 51 -5 14 108 10 175 -17 321 -45 250 -57 269 -166 269 l-57 0 -7 56 c-5 45 -11 58 -30 66 -13 6 -24 16 -24 21 0 6 -8 20 -19 31 -10 12 -26 44 -35 72 -13 41 -14 57 -5 77 10 21 8 32 -8 64 -11 21 -34 89 -53 150 l-34 113 21 20 c50 46 37 92 -41 144 -63 42 -86 63 -86 79 0 6 17 -6 38 -26 38 -37 66 -51 41 -20 -13 15 -11 15 19 -1 18 -9 41 -14 51 -11 11 3 23 -2 32 -12 11 -15 11 -16 -1 -5 -22 19 -35 14 -17 -6 10 -10 17 -24 17 -30 0 -7 7 -12 15 -12 8 0 15 8 15 18 0 31 -27 58 -72 71 -88 27 -95 32 -123 84 -43 81 -62 97 -111 97 -35 0 -47 -5 -68 -31z m121 -26 c21 -27 36 -65 38 -93 2 -37 15 -60 33 -60 13 0 13 -2 -3 -14 -16 -12 -31 -61 -16 -52 8 5 25 -16 29 -34 3 -11 0 -11 -12 -1 -19 16 -46 8 -46 -14 0 -8 -5 -15 -11 -15 -5 0 -7 -5 -4 -10 4 -6 11 -8 16 -5 5 4 9 -3 9 -14 0 -11 -5 -23 -11 -26 -6 -4 -9 -1 -8 6 4 19 -23 59 -38 59 -7 0 -15 11 -19 24 -6 27 -44 67 -44 48 0 -7 5 -12 12 -12 6 0 9 -3 5 -6 -12 -12 16 -64 41 -76 15 -7 28 -22 30 -33 2 -18 2 -19 -8 -2 -14 21 -36 22 -44 1 -3 -8 -11 -12 -17 -9 -7 5 -4 14 8 28 16 18 16 20 1 14 -21 -7 -63 25 -83 63 -8 16 -16 53 -16 82 -1 29 -3 45 -6 35 -2 -9 -9 -14 -15 -11 -7 5 -9 0 -6 -14 7 -24 -7 -31 -15 -8 -3 7 7 26 23 41 15 14 36 44 45 66 10 21 22 39 27 39 5 0 6 5 3 10 -12 19 86 12 102 -7z m-204 -240 c5 -7 4 -13 -2 -13 -14 0 -31 34 -31 63 0 40 15 41 20 0 3 -21 9 -44 13 -50z m49 10 c25 -54 21 -72 -7 -30 -14 22 -34 98 -23 87 3 -3 17 -29 30 -57z m288 -49 c0 -18 -4 -35 -9 -39 -6 -3 -8 9 -4 30 5 30 1 39 -29 69 -20 20 -33 38 -29 42 3 3 21 -11 39 -32 22 -26 32 -48 32 -70z m-383 64 c-3 -7 -5 -2 -5 12 0 14 2 19 5 13 2 -7 2 -19 0 -25z m414 -36 c10 -27 3 -62 -12 -62 -6 0 -6 7 0 19 8 13 5 28 -9 55 -14 28 -15 34 -3 24 8 -6 19 -23 24 -36z m-107 -55 c0 -43 1 -45 16 -32 9 8 21 15 26 15 5 0 2 -5 -6 -11 -11 -8 -8 -9 15 -5 l30 6 31 -112 c18 -62 31 -114 30 -115 -1 -2 -19 -4 -39 -5 l-37 -3 5 -45 c5 -33 4 -41 -4 -30 -8 12 -11 5 -11 -28 0 -26 4 -41 10 -37 6 4 10 -20 10 -65 0 -68 -1 -71 -27 -81 -31 -12 -109 -7 -124 8 -14 14 1 93 17 93 9 0 14 -11 14 -30 0 -50 67 -70 94 -27 11 18 12 35 3 88 -6 41 -6 84 -1 115 6 29 5 78 0 121 -8 62 -7 75 7 91 21 23 22 39 3 23 -11 -10 -15 -8 -19 6 -3 11 -5 8 -6 -10 0 -16 -5 -36 -10 -46 -6 -10 -6 -33 -2 -53 l9 -36 -60 -7 c-33 -4 -89 -4 -124 0 -55 6 -64 9 -64 27 0 11 15 35 34 54 30 30 40 34 88 34 33 0 62 -6 76 -16 13 -9 26 -14 29 -11 2 3 -8 13 -23 23 -35 23 -123 23 -158 0 -32 -20 -39 -20 -28 1 10 18 16 20 102 32 53 8 54 8 13 10 -23 0 -54 -4 -70 -9 -26 -9 -27 -9 -9 5 24 18 109 20 128 3 39 -37 58 -50 58 -42 0 5 -11 21 -25 36 -14 15 -21 30 -15 33 14 9 12 58 -2 74 -11 11 -10 13 2 9 11 -4 15 -19 14 -51z m-186 -33 c11 -17 12 -17 6 6 -6 24 -5 24 11 8 17 -16 16 -18 -13 -43 -18 -15 -32 -35 -32 -46 0 -10 -5 -19 -11 -19 -8 0 -10 12 -6 36 6 38 0 64 -14 64 -5 0 -7 -12 -4 -27 l6 -28 -16 28 c-9 15 -20 27 -25 27 -6 0 -5 11 2 25 13 28 18 30 37 13 12 -11 13 -9 7 7 -5 16 -2 15 16 -6 13 -14 29 -35 36 -45z m-78 -41 c12 -20 24 -57 27 -83 5 -45 4 -47 -32 -69 -21 -12 -35 -24 -32 -27 3 -3 18 3 33 13 28 18 28 18 20 -2 -5 -11 -10 -27 -13 -36 -11 -39 -73 11 -73 59 0 13 -4 20 -10 17 -6 -3 -7 1 -4 9 3 9 10 14 14 11 4 -3 13 26 20 63 12 65 17 82 25 82 1 0 13 -17 25 -37z m175 -163 c28 0 66 4 85 10 23 6 36 6 40 0 8 -13 0 -71 -9 -66 -4 3 -16 -9 -26 -25 -25 -37 -71 -59 -110 -52 -37 7 -91 63 -100 103 -9 41 -1 50 38 39 17 -5 54 -9 82 -9z m-110 -98 c30 -35 69 -52 117 -52 60 0 114 38 102 70 -3 10 -2 12 5 5 5 -5 11 -32 12 -60 l3 -50 -39 -5 c-66 -8 -206 -3 -217 8 -6 6 -9 29 -6 51 4 43 0 49 -20 29 -9 -9 -12 -7 -12 13 0 13 3 35 7 49 l6 24 11 -29 c6 -17 20 -41 31 -53z m365 39 c5 -11 10 -30 9 -43 l0 -23 -9 23 c-6 14 -18 22 -34 22 -35 0 -42 -18 -10 -22 24 -3 29 -10 45 -67 10 -35 30 -80 44 -100 26 -39 33 -71 14 -71 -7 0 -18 8 -26 18 -14 16 -14 16 -9 -2 6 -16 4 -17 -9 -6 -8 7 -15 26 -15 42 0 16 -18 66 -40 110 -38 78 -48 117 -33 131 14 15 63 7 73 -12z m-407 -142 c-4 -20 1 -31 22 -47 24 -19 30 -20 58 -8 18 7 32 19 32 27 0 8 9 15 21 17 18 3 20 -1 16 -27 -6 -44 -24 -54 -88 -49 -71 6 -82 19 -76 87 3 34 7 49 12 40 5 -7 6 -25 3 -40z m97 -16 c8 -8 -34 -34 -49 -31 -7 2 -20 13 -29 26 l-15 23 44 -7 c24 -4 46 -9 49 -11z m190 -13 c0 -56 -59 -59 -73 -3 -4 18 0 23 27 26 17 2 34 5 39 5 4 1 7 -11 7 -28z m-198 -74 l47 1 3 -123 c2 -67 0 -120 -4 -117 -13 7 -9 -22 4 -35 9 -9 31 -210 24 -218 -1 -1 -11 -5 -23 -8 -18 -6 -23 -3 -23 12 0 11 -12 45 -26 76 -17 37 -28 87 -35 148 -5 51 -20 135 -33 186 l-23 92 21 -7 c12 -5 42 -8 68 -7z m70 -43 c-3 -16 -7 -22 -10 -15 -4 13 4 42 11 42 2 0 2 -12 -1 -27z m138 22 c0 -1 -10 -43 -22 -95 -13 -60 -22 -134 -23 -200 -1 -58 -7 -131 -14 -163 l-13 -58 -21 28 c-21 26 -22 39 -25 258 l-3 230 61 0 c33 0 60 0 60 0z m215 -5 c3 -6 -1 -7 -9 -4 -18 7 -21 14 -7 14 6 0 13 -4 16 -10z m-44 -22 c24 1 39 -4 39 -11 0 -7 3 -28 6 -47 l6 -36 -51 -2 c-43 -2 -51 1 -51 15 0 10 -3 36 -7 57 -5 30 -3 37 6 31 7 -4 30 -7 52 -7z m-74 -20 c-3 -8 -6 -5 -6 6 -1 11 2 17 5 13 3 -3 4 -12 1 -19z m10 -50 c-3 -8 -6 -5 -6 6 -1 11 2 17 5 13 3 -3 4 -12 1 -19z m-240 -121 c-2 -23 -3 -1 -3 48 0 50 1 68 3 42 2 -26 2 -67 0 -90z m273 -27 c12 -52 30 -149 39 -214 9 -66 22 -121 28 -123 7 -3 8 12 2 44 -4 26 -11 66 -14 88 -5 33 -30 147 -62 293 -4 15 -1 22 10 22 17 0 56 -151 83 -320 20 -129 23 -140 33 -140 16 0 -32 275 -69 391 -20 66 -20 75 3 66 20 -8 97 -341 97 -423 0 -21 16 -41 25 -32 10 10 -65 377 -90 441 -5 12 -2 17 9 17 10 0 21 -18 31 -52 18 -62 75 -334 75 -363 0 -22 16 -52 24 -45 7 8 -41 265 -69 363 -29 103 -29 97 -11 97 17 0 68 -189 92 -340 17 -104 34 -152 34 -94 0 43 -56 310 -79 377 -19 54 -19 58 -3 55 20 -4 47 -93 87 -289 25 -121 44 -185 45 -152 0 29 -71 366 -85 399 -18 44 -12 55 15 28 22 -22 51 -130 80 -299 25 -145 25 -145 -2 -145 -25 0 -58 -27 -58 -47 0 -10 -22 -13 -95 -13 -77 0 -93 3 -89 14 8 21 -34 46 -61 36 -22 -8 -22 -6 -46 153 -20 138 -25 157 -32 130 -7 -22 -5 -63 5 -127 11 -69 12 -98 4 -106 -8 -8 -16 19 -28 97 -16 104 -16 149 2 138 10 -6 23 59 16 83 -15 58 -15 71 0 87 9 9 20 13 24 8 4 -4 18 -51 30 -103z m-80 20 c0 -10 -4 -22 -10 -25 -6 -4 -10 7 -10 25 0 18 4 29 10 25 6 -3 10 -15 10 -25z m17 -42 c-3 -8 -6 -5 -6 6 -1 11 2 17 5 13 3 -3 4 -12 1 -19z m-205 -234 c-16 -11 -22 -25 -22 -52 0 -21 -7 -48 -17 -61 -9 -13 -16 -40 -15 -59 1 -27 -1 -33 -10 -24 -9 9 -9 23 1 60 7 26 17 64 21 84 8 44 26 68 48 68 12 0 11 -4 -6 -16z m35 -10 c-3 -3 -12 -4 -19 -1 -8 3 -5 6 6 6 11 1 17 -2 13 -5z m-4 -21 c-7 -2 -21 -2 -30 0 -10 3 -4 5 12 5 17 0 24 -2 18 -5z m0 -20 c-7 -2 -21 -2 -30 0 -10 3 -4 5 12 5 17 0 24 -2 18 -5z m-8 -23 c-27 -12 -35 -12 -35 0 0 6 12 10 28 9 24 0 25 -1 7 -9z m13 -40 c-1 -28 -4 -30 -40 -30 -35 0 -38 2 -24 15 8 8 23 16 33 16 17 1 17 2 -1 6 -15 4 -16 7 -5 14 26 16 38 9 37 -21z m215 -37 c6 -32 3 -38 -12 -28 -13 8 -15 55 -2 55 5 0 11 -12 14 -27z m67 9 c0 -4 -9 -8 -20 -8 -11 0 -20 4 -20 8 0 4 9 8 20 8 11 0 20 -4 20 -8z m-297 -19 c-13 -2 -33 -2 -45 0 -13 2 -3 4 22 4 25 0 35 -2 23 -4z m537 -2 c0 -16 -33 -23 -127 -28 -128 -8 -120 11 10 24 56 5 105 10 110 11 4 1 7 -2 7 -7z m50 -17 c0 -8 -4 -12 -10 -9 -5 3 -10 13 -10 21 0 8 5 12 10 9 6 -3 10 -13 10 -21z m-290 -5 c0 -11 -4 -17 -10 -14 -5 3 -10 13 -10 21 0 8 5 14 10 14 6 0 10 -9 10 -21z m-260 2 c0 -3 -5 -13 -10 -21 -9 -13 -10 -13 -10 0 0 12 -9 15 -40 12 -26 -3 -40 0 -40 7 0 8 18 11 50 10 28 -2 50 -5 50 -8z m210 -31 c0 -11 -4 -20 -10 -20 -5 0 -10 9 -10 20 0 11 5 20 10 20 6 0 10 -9 10 -20z m-263 -1 c-14 -8 -22 -8 -30 0 -8 8 -3 11 19 11 25 -1 27 -2 11 -11z m490 -11 c-3 -8 -6 -5 -6 6 -1 11 2 17 5 13 3 -3 4 -12 1 -19z" style="paint-order: fill; fill: rgb(0, 231, 252);"/>
    <path d="M2350 3842 c4 -43 13 -69 33 -96 16 -20 30 -36 32 -36 4 0 -17 55 -36 92 -5 10 -9 28 -9 41 0 13 -6 31 -13 41 -11 15 -12 8 -7 -42z" style="paint-order: fill; fill: rgb(0, 231, 252);"/>
    <path d="M2691 2963 c-1 -6 5 -42 13 -80 8 -37 22 -122 31 -188 10 -66 21 -124 25 -128 4 -5 6 2 4 15 -2 13 -13 84 -24 158 -19 124 -47 251 -49 223z" style="paint-order: fill; fill: rgb(0, 231, 252);"/>
    <path d="M2468 2503 c6 -2 18 -2 25 0 6 3 1 5 -13 5 -14 0 -19 -2 -12 -5z" style="paint-order: fill; fill: rgb(0, 231, 252);"/>
    <path d="M2661 3811 c40 -40 50 -76 27 -99 -8 -8 -8 -12 -1 -12 13 0 23 24 23 57 0 25 -57 93 -78 93 -5 0 8 -17 29 -39z" style="paint-order: fill; fill: rgb(0, 231, 252);"/>
    <path d="M1494 3795 c3 -8 9 -22 13 -32 4 -11 3 -14 -5 -9 -7 4 -1 -13 12 -38 14 -25 22 -46 19 -46 -3 0 1 -7 8 -16 7 -9 15 -25 16 -37 2 -12 10 -31 18 -43 8 -12 11 -25 8 -28 -4 -3 -18 15 -32 41 -15 27 -31 48 -36 48 -6 0 -17 4 -25 10 -19 12 -132 16 -124 4 3 -5 -7 -10 -23 -10 -26 -2 -26 -2 -4 -6 18 -4 21 -7 11 -13 -7 -5 14 -7 50 -5 35 2 57 -1 50 -5 -9 -6 1 -12 31 -20 24 -6 50 -13 58 -16 25 -8 1 -18 -39 -15 -65 4 -136 -47 -144 -105 -2 -16 -6 -36 -8 -44 -14 -39 -26 -90 -21 -90 7 0 28 23 41 45 11 19 11 19 13 -5 1 -17 5 -10 11 20 6 25 13 39 15 33 7 -19 23 -16 24 5 0 15 1 14 8 -3 7 -17 9 -16 15 10 4 16 22 43 39 60 18 16 31 33 30 37 -2 5 5 9 15 10 32 2 37 3 48 11 11 6 10 56 -1 85 -3 7 -1 11 3 9 4 -2 15 4 25 15 9 10 15 18 12 18 -2 0 23 27 57 60 64 63 64 72 1 43 -42 -20 -72 -50 -73 -73 0 -8 -7 -24 -15 -34 -15 -19 -15 -19 -15 5 0 13 -18 50 -41 82 -40 56 -57 72 -45 42z m16 -276 c0 -6 -7 -9 -15 -6 -8 4 -17 1 -21 -5 -5 -7 -2 -8 7 -3 8 4 -1 -6 -19 -24 -18 -17 -42 -36 -53 -42 -19 -9 -20 -8 -17 18 2 20 14 33 43 50 43 25 75 30 75 12z" style="paint-order: fill; fill: rgb(0, 231, 252);"/>
    <path d="M3543 3773 c-10 -16 -23 -34 -30 -41 -7 -7 -16 -25 -19 -40 -3 -15 -7 -31 -8 -36 -1 -5 -13 13 -27 40 -18 38 -34 54 -69 71 -56 27 -72 29 -41 3 13 -11 20 -20 16 -20 -4 0 10 -14 31 -31 22 -17 39 -35 39 -40 0 -5 14 -21 30 -35 17 -14 24 -23 18 -19 -9 4 -13 -3 -13 -24 0 -41 16 -39 30 3 6 19 17 40 25 46 8 7 13 16 10 20 -3 5 -1 11 5 15 6 4 8 11 5 16 -4 5 -1 9 5 9 6 0 9 4 5 9 -3 5 5 17 17 26 l23 17 -23 -7 c-23 -7 -23 -7 -7 19 10 15 13 26 6 26 -6 0 -18 -12 -28 -27z" style="paint-order: fill; fill: rgb(0, 231, 252);"/>
    <path d="M1694 3715 c-14 -14 -29 -25 -35 -25 -6 0 -7 -5 -3 -12 4 -6 -1 -17 -11 -25 -11 -7 -14 -13 -9 -13 16 0 74 46 67 53 -3 4 -2 7 4 7 6 0 13 9 16 20 7 26 1 25 -29 -5z" style="paint-order: fill; fill: rgb(0, 231, 252);"/>
    <path d="M3343 3720 c1 -11 8 -20 16 -20 8 0 11 -3 8 -6 -7 -7 28 -37 53 -47 12 -4 11 -6 -3 -6 -10 -1 -33 10 -51 24 -18 14 -48 27 -67 31 -30 5 -32 4 -14 -7 28 -18 45 -36 45 -48 0 -5 7 -14 16 -19 13 -7 9 -11 -17 -17 l-34 -7 40 -9 c71 -17 67 -31 -6 -24 -61 7 -137 -1 -126 -12 3 -2 -6 -15 -19 -28 -32 -32 -30 -50 3 -28 25 17 27 17 21 1 -5 -13 -3 -15 10 -11 9 4 22 13 28 21 9 13 12 12 18 -4 6 -16 9 -16 16 -4 9 13 10 13 10 0 0 -8 -9 -28 -20 -45 -11 -16 -20 -39 -20 -50 0 -20 -45 -49 -61 -39 -10 6 24 69 54 101 11 13 17 26 14 30 -4 3 -7 1 -7 -5 0 -6 -15 -16 -34 -22 -19 -6 -40 -17 -46 -25 -7 -8 -16 -12 -21 -9 -5 3 -9 -4 -9 -15 0 -12 -5 -21 -11 -21 -8 0 -9 -13 -5 -41 8 -49 -4 -45 -29 11 -12 27 -21 37 -26 28 -6 -9 -13 -8 -28 6 -30 28 -104 24 -137 -7 l-26 -24 53 1 c30 0 54 -3 54 -9 0 -5 -11 -10 -25 -11 -14 0 -24 -6 -22 -12 1 -7 -6 -12 -16 -12 -10 0 -28 -10 -39 -22 -25 -28 -40 -113 -22 -124 8 -5 10 -2 7 8 -4 8 5 28 18 44 20 24 25 27 33 14 7 -11 4 -21 -10 -36 -20 -22 -51 -95 -43 -103 2 -2 19 8 38 23 19 14 37 26 41 26 7 0 27 16 55 44 11 11 20 16 20 10 0 -5 5 -1 11 9 17 29 30 19 14 -13 -18 -35 -19 -43 -2 -34 10 6 10 4 0 -7 -15 -16 -17 -33 -3 -24 13 8 13 -1 0 -26 -6 -10 -7 -19 -3 -19 5 0 10 -11 11 -24 3 -35 20 -76 32 -76 6 0 8 5 5 10 -3 6 -3 30 1 55 6 41 8 44 20 28 13 -16 13 -15 4 11 -6 16 -8 31 -5 34 3 3 5 0 5 -6 0 -7 4 -12 10 -12 6 0 5 10 -2 25 -10 22 -5 46 7 34 8 -9 56 -283 70 -409 8 -68 18 -200 22 -292 l6 -168 25 0 25 0 -6 153 c-7 174 -27 337 -63 519 -19 94 -23 132 -15 145 8 15 11 10 11 -27 1 -34 3 -40 10 -25 7 16 9 12 10 -20 l2 -40 11 35 c6 19 18 40 26 46 13 10 13 15 -2 38 -11 16 -13 26 -6 26 7 0 5 10 -6 26 -11 18 -13 24 -4 19 8 -5 6 1 -4 13 l-19 21 64 -20 c74 -22 71 -22 63 -9 -4 6 6 7 27 3 18 -3 33 -6 33 -7 1 -1 -2 -62 -6 -136 -4 -74 -7 -276 -8 -447 l-1 -313 29 0 29 0 -6 449 -5 449 24 5 24 4 -23 8 c-18 6 -22 13 -18 29 3 12 6 72 7 134 0 62 5 112 10 112 5 0 9 -5 9 -11 0 -5 4 -8 9 -5 5 4 7 -11 4 -33 -3 -23 -1 -41 6 -45 6 -4 11 -21 11 -39 0 -24 3 -28 12 -19 18 18 30 14 19 -7 -8 -14 -6 -27 5 -50 16 -32 34 -33 34 -2 0 9 5 22 12 29 9 9 8 16 -5 30 -24 27 -21 38 5 16 23 -20 23 -20 2 31 -3 8 -1 15 5 15 6 0 8 8 4 18 -10 27 -45 62 -56 55 -6 -3 -7 -1 -3 5 4 7 13 12 20 12 18 0 54 -45 62 -77 7 -25 8 -25 15 -8 6 17 8 17 8 3 1 -11 6 -15 15 -12 11 4 18 -6 26 -35 13 -49 24 -55 16 -8 l-6 32 14 -30 c8 -16 15 -25 16 -20 1 6 6 1 11 -10 6 -14 7 -6 3 25 -4 25 -9 49 -12 55 -3 5 -7 23 -9 39 -6 57 -78 109 -143 105 -40 -3 -64 7 -39 15 8 3 34 10 58 16 29 8 40 14 32 20 -7 4 12 6 43 5 31 -2 54 1 51 5 -3 5 3 11 12 13 13 3 12 5 -5 6 -13 0 -21 5 -17 10 7 13 -103 7 -137 -7 -16 -6 -36 -29 -49 -54 -12 -24 -27 -46 -33 -50 -6 -4 12 -7 39 -7 28 0 57 -1 65 -3 27 -7 91 -41 86 -46 -3 -2 -1 -13 4 -22 7 -13 6 -20 -4 -23 -13 -5 -47 23 -84 67 -14 18 -52 22 -52 5 0 -5 -5 -7 -12 -3 -6 4 -8 3 -5 -3 4 -6 0 -13 -8 -17 -8 -3 -15 -1 -15 4 0 5 -10 15 -22 21 -18 10 -24 8 -35 -7 -7 -10 -13 -28 -13 -41 0 -15 -9 -27 -25 -35 -14 -6 -25 -15 -25 -20 0 -4 -5 -8 -10 -8 -7 0 -7 7 0 21 7 11 9 23 6 26 -8 8 -43 -30 -47 -51 -3 -13 -14 -21 -32 -23 -18 -3 -28 0 -25 7 2 6 7 11 12 10 4 -1 19 15 32 34 16 23 33 36 47 36 20 1 20 1 4 11 -14 8 -25 6 -45 -7 -19 -12 -23 -13 -15 -3 10 12 9 21 -2 43 -8 16 -15 29 -15 30 0 2 13 1 30 -2 59 -9 109 23 80 52 -5 5 -10 17 -10 25 0 8 3 11 7 8 3 -4 14 0 24 9 13 12 16 21 9 34 -5 10 -6 20 -3 24 3 3 -3 6 -15 6 -12 0 -22 3 -22 8 0 4 -11 15 -25 24 -23 17 -24 17 -22 -2z m204 -270 c8 -16 8 -31 1 -52 -6 -16 -12 -27 -15 -25 -6 6 -16 59 -15 80 1 10 -4 15 -10 11 -7 -4 -8 -2 -4 5 11 17 29 9 43 -19z m-131 -87 c-2 -27 -5 -50 -5 -52 -1 -2 -10 4 -20 13 -16 14 -17 21 -7 39 32 61 39 61 32 0z m-353 4 c4 3 7 0 7 -9 0 -24 36 -51 59 -43 25 7 49 45 30 45 -7 0 -9 3 -5 7 4 4 15 -2 24 -14 20 -26 71 -22 73 6 0 10 2 11 6 4 2 -7 12 -13 21 -13 13 0 12 -5 -7 -19 -36 -28 -16 -60 32 -52 5 1 6 -3 2 -9 -9 -15 7 -12 29 5 14 11 16 15 5 15 -10 1 -9 4 4 11 27 16 67 3 67 -21 0 -18 -5 -20 -40 -14 -33 5 -40 4 -40 -10 0 -17 -15 -22 -24 -7 -8 12 -84 10 -95 -3 -13 -17 -10 -49 6 -68 14 -15 12 -18 -18 -31 -33 -13 -34 -13 -46 14 -6 14 -16 30 -23 34 -11 7 -45 -21 -47 -40 -1 -5 -7 -11 -15 -13 -9 -2 -8 0 2 7 13 10 13 11 0 11 -9 0 -11 3 -5 8 13 10 13 52 -2 77 -11 19 -13 19 -45 2 -18 -9 -43 -24 -55 -33 -21 -15 -22 -15 -17 11 3 19 1 24 -7 19 -9 -5 -10 -2 -6 10 4 10 1 19 -8 22 -23 9 -18 20 18 34 44 18 77 49 70 67 -5 13 -3 13 19 -1 13 -9 28 -13 31 -9z m291 -7 c-16 -32 -34 -48 -34 -31 0 6 0 13 0 16 0 3 3 6 8 6 4 1 13 10 20 20 20 28 22 23 6 -11z m-44 -56 c0 -11 -5 -14 -16 -10 -9 3 -21 6 -27 6 -16 0 14 20 31 20 6 0 12 -7 12 -16z" style="paint-order: fill; fill: rgb(0, 231, 252);"/>
    <path d="M3596 3728 c3 -5 10 -6 15 -3 13 9 11 12 -6 12 -8 0 -12 -4 -9 -9z" style="paint-order: fill; fill: rgb(0, 231, 252);"/>
    <path d="M1735 3684 c-16 -8 -37 -21 -45 -28 -8 -7 -24 -17 -35 -21 -18 -8 -17 -9 7 -13 27 -3 28 -4 13 -32 -14 -28 -14 -30 9 -45 15 -10 37 -14 60 -11 l37 5 -16 -25 c-9 -13 -13 -30 -9 -36 5 -7 -1 -9 -18 -5 -31 8 -52 -13 -43 -43 8 -24 2 -25 -30 -4 -14 9 -25 26 -25 38 0 11 -7 30 -15 40 -13 18 -16 18 -39 3 -14 -9 -24 -25 -24 -34 2 -24 -22 -93 -31 -93 -4 0 -13 11 -19 25 -10 21 -8 29 15 55 33 40 23 49 -15 15 -32 -28 -46 -61 -31 -71 5 -3 5 -13 -1 -24 -16 -29 -12 -35 10 -15 24 21 27 9 4 -16 -11 -12 -13 -22 -5 -36 5 -10 12 -27 16 -37 5 -18 8 -16 26 12 15 26 17 37 8 53 -6 12 -8 23 -5 26 3 3 8 -2 12 -11 9 -24 26 -19 23 7 -2 12 2 31 8 42 6 11 9 35 8 52 -1 18 1 30 6 27 5 -3 9 0 9 7 0 7 3 10 6 6 3 -3 8 -62 11 -132 5 -115 3 -128 -13 -140 -17 -13 -17 -14 -2 -15 13 0 17 -17 23 -107 8 -110 -1 -688 -12 -755 -5 -37 -5 -38 24 -38 26 0 31 5 37 31 9 45 7 409 -4 654 -5 115 -8 210 -7 211 1 1 17 4 35 7 21 4 31 3 27 -3 -3 -6 -5 -10 -3 -10 5 0 92 28 113 36 20 7 20 7 1 -14 -11 -12 -15 -22 -11 -22 4 0 0 -9 -10 -20 -17 -19 -17 -20 0 -20 16 0 17 -2 3 -17 -17 -21 -35 -51 -23 -41 14 13 35 -13 35 -43 0 -16 5 -29 10 -29 6 0 10 11 10 25 0 14 5 25 10 25 6 0 10 14 10 32 0 25 3 29 12 20 9 -9 6 -43 -15 -149 -45 -229 -64 -395 -68 -578 l-2 -90 26 -3 27 -3 0 89 c0 182 29 452 71 665 24 122 24 134 4 117 -8 -7 -15 -18 -15 -26 0 -14 -51 -15 -62 0 -3 5 1 25 10 43 16 34 16 35 -8 53 -16 12 -27 15 -31 8 -4 -6 -11 -8 -17 -4 -6 3 -22 2 -36 -4 -21 -8 -26 -7 -26 7 0 13 -8 15 -40 10 -34 -4 -40 -2 -40 14 0 11 9 21 24 25 27 6 50 -2 41 -16 -3 -4 9 -13 25 -19 18 -6 30 -6 30 0 0 5 7 9 16 9 8 0 12 5 9 10 -4 6 -15 8 -25 5 -23 -7 -37 13 -16 21 9 4 23 1 31 -6 9 -7 18 -10 22 -7 9 9 -17 37 -36 38 -9 1 -5 4 9 8 14 4 31 4 37 -2 7 -5 19 -7 27 -4 8 3 16 2 18 -3 2 -5 9 -6 16 -1 9 5 0 13 -28 26 -22 10 -40 25 -40 33 0 8 -12 35 -26 59 -14 25 -23 47 -20 51 11 10 94 -86 101 -117 5 -22 12 -31 23 -29 11 2 16 -3 14 -14 -1 -9 7 -23 19 -32 21 -14 24 -13 61 24 43 45 57 49 65 20 3 -11 13 -20 22 -20 14 0 14 -2 1 -11 -12 -9 -12 -10 3 -5 21 7 90 -41 81 -56 -3 -5 3 -19 14 -31 11 -12 22 -29 25 -37 3 -8 5 7 5 33 -1 54 -27 97 -59 97 -10 0 -18 6 -17 12 2 8 -7 12 -24 10 -16 -2 -28 1 -28 7 0 15 45 25 75 17 30 -8 32 3 4 27 -26 23 -98 25 -131 3 -13 -9 -27 -13 -31 -10 -3 3 -15 -12 -27 -35 -11 -23 -25 -41 -31 -41 -6 0 -6 6 1 19 13 25 13 61 0 61 -5 0 -10 10 -10 22 0 12 -3 18 -6 15 -4 -3 -18 3 -32 13 -13 11 -31 20 -38 20 -16 0 -44 27 -44 43 0 6 9 1 20 -11 24 -25 50 -31 30 -7 -16 20 0 19 28 -1 30 -21 29 0 -2 31 -13 13 -22 26 -19 28 11 11 -62 18 -122 12 -77 -9 -90 8 -17 23 l47 9 -32 8 c-22 5 -29 11 -22 19 5 6 17 20 27 32 9 11 26 26 37 32 l20 11 -20 1 c-11 0 -33 -7 -50 -16z m15 -242 c0 -8 12 -25 27 -38 15 -13 24 -26 21 -30 -11 -11 -58 5 -58 20 0 7 -7 19 -15 26 -21 18 -19 39 5 37 11 -1 20 -8 20 -15z m-80 -54 c0 -6 7 -19 15 -28 14 -16 13 -19 -10 -34 l-25 -16 0 50 c0 32 4 49 10 45 6 -3 10 -11 10 -17z m79 -52 c-6 -6 -13 -6 -21 2 -7 7 -8 12 -4 12 5 0 2 8 -5 17 -11 13 -8 13 13 -2 16 -13 23 -24 17 -29z" style="paint-order: fill; fill: rgb(0, 231, 252);"/>
    <path d="M1400 3600 c-9 -6 -10 -10 -3 -10 6 0 15 5 18 10 8 12 4 12 -15 0z" style="paint-order: fill; fill: rgb(0, 231, 252);"/>
    <path d="M3657 3595 c3 -8 9 -12 14 -9 12 7 11 11 -5 17 -10 4 -13 1 -9 -8z" style="paint-order: fill; fill: rgb(0, 231, 252);"/>
    <path d="M2130 3261 c-13 -25 -13 -54 0 -46 6 3 10 2 10 -3 0 -19 -13 -20 -33 -1 -12 11 -36 28 -53 39 -30 17 -33 17 -47 2 -11 -13 -14 -31 -10 -71 3 -37 2 -51 -6 -47 -6 4 -11 15 -11 26 0 35 -25 29 -27 -6 -1 -22 2 -32 9 -28 6 4 8 -1 3 -16 -5 -14 -3 -20 3 -16 6 4 14 -15 20 -46 l9 -53 12 30 c7 17 13 42 13 57 1 15 5 25 9 22 5 -3 4 7 -1 22 -10 25 -9 26 7 13 16 -13 16 -12 -1 15 -10 16 -12 25 -5 21 9 -6 10 -3 5 11 -5 10 -10 28 -13 39 -4 17 -2 17 17 -5 12 -14 19 -18 15 -10 -4 8 3 4 14 -10 11 -14 21 -21 21 -16 0 4 9 -2 21 -15 11 -13 17 -17 13 -9 -4 8 4 5 18 -7 13 -13 29 -23 35 -23 6 0 14 -6 16 -12 3 -8 6 -7 6 4 2 28 -19 71 -47 102 -15 16 -20 27 -12 24 11 -4 16 0 16 13 0 25 -12 24 -26 0z" style="paint-order: fill; fill: rgb(0, 231, 252);"/>
    <path d="M1212 2626 c-17 -42 -32 -80 -32 -86 0 -13 -17 -13 -25 0 -12 20 -25 9 -61 -57 -20 -38 -50 -90 -66 -117 -54 -89 -19 -60 43 38 34 53 66 96 72 96 5 0 11 -9 14 -20 3 -11 8 -20 12 -20 3 0 24 41 46 90 36 81 55 109 55 80 0 -16 144 -313 147 -303 6 18 -142 368 -157 371 -11 2 -26 -21 -48 -72z" style="paint-order: fill; fill: rgb(0, 231, 252);"/>
    <path d="M3796 2653 c-53 -131 -57 -136 -71 -116 -7 10 -15 16 -18 13 -17 -19 -127 -223 -123 -227 3 -3 33 38 68 91 l62 96 15 -27 14 -27 38 83 c22 46 39 88 39 92 0 5 5 9 10 9 6 0 10 -4 10 -10 0 -18 139 -305 150 -308 7 -3 7 4 1 20 -101 245 -150 353 -162 356 -9 1 -21 -16 -33 -45z" style="paint-order: fill; fill: rgb(0, 231, 252);"/>
    <path d="M2563 2083 c-18 -7 -18 -206 0 -221 7 -6 17 -8 22 -4 11 8 8 232 -3 231 -4 0 -13 -3 -19 -6z" style="paint-order: fill; fill: rgb(0, 231, 252);"/>
    <path d="M1220 1970 l0 -110 70 0 c56 0 70 3 70 15 0 11 -12 15 -50 15 l-50 0 0 95 c0 88 -1 95 -20 95 -19 0 -20 -7 -20 -110z" style="paint-order: fill; fill: rgb(0, 231, 252);"/>
    <path d="M1690 2060 c0 -16 5 -21 23 -18 12 2 22 10 22 18 0 8 -10 16 -22 18 -18 3 -23 -2 -23 -18z" style="paint-order: fill; fill: rgb(0, 231, 252);"/>
    <path d="M2226 1988 c-10 -51 -20 -101 -23 -110 -3 -13 1 -18 15 -18 20 0 32 33 32 87 0 41 22 21 39 -36 9 -29 21 -53 26 -53 6 0 17 24 26 53 19 62 39 76 39 27 0 -54 10 -78 32 -78 12 0 18 5 15 13 -2 6 -12 56 -22 110 -12 61 -23 97 -31 97 -12 0 -44 -90 -44 -124 0 -9 -7 -16 -15 -16 -8 0 -15 7 -15 17 0 30 -34 123 -45 123 -6 0 -19 -42 -29 -92z" style="paint-order: fill; fill: rgb(0, 231, 252);"/>
    <path d="M2462 2063 c5 -26 38 -29 38 -4 0 15 -6 21 -21 21 -14 0 -19 -5 -17 -17z" style="paint-order: fill; fill: rgb(0, 231, 252);"/>
    <path d="M3074 1983 c-20 -54 -41 -104 -47 -110 -7 -10 -3 -13 16 -13 16 0 28 7 32 19 4 13 17 20 46 23 35 3 40 1 45 -19 4 -16 14 -23 29 -23 23 0 23 1 -20 107 -23 59 -47 109 -53 111 -5 1 -27 -41 -48 -95z m59 5 c2 -13 8 -31 12 -40 6 -15 2 -18 -23 -18 l-29 0 10 40 c12 45 22 51 30 18z" style="paint-order: fill; fill: rgb(0, 231, 252);"/>
    <path d="M1578 2062 c-10 -2 -18 -12 -18 -23 0 -10 -4 -19 -10 -19 -5 0 -10 -7 -10 -15 0 -8 5 -15 10 -15 6 0 10 -24 10 -53 0 -29 5 -58 12 -65 18 -18 78 -16 78 3 0 9 -9 15 -25 15 -23 0 -25 3 -25 50 0 46 2 50 23 50 14 0 24 6 24 15 0 9 -10 15 -23 15 -16 0 -24 7 -26 23 -2 15 -9 21 -20 19z" style="paint-order: fill; fill: rgb(0, 231, 252);"/>
    <path d="M1400 2006 c0 -10 13 -16 37 -18 48 -4 57 -28 10 -28 -47 0 -74 -30 -61 -68 9 -24 15 -27 54 -27 25 0 51 -4 58 -8 6 -5 16 -6 20 -3 11 7 -6 137 -20 153 -15 19 -98 17 -98 -1z m80 -86 c0 -21 -27 -40 -47 -33 -7 3 -13 13 -13 23 0 19 13 28 43 29 10 1 17 -6 17 -19z" style="paint-order: fill; fill: rgb(0, 231, 252);"/>
    <path d="M1670 2005 c0 -8 6 -15 13 -15 9 0 11 -18 9 -65 -3 -60 -2 -65 17 -65 20 0 21 6 21 80 l0 80 -30 0 c-20 0 -30 -5 -30 -15z" style="paint-order: fill; fill: rgb(0, 231, 252);"/>
    <path d="M1770 1938 c0 -74 1 -78 23 -78 20 0 22 4 22 62 l0 63 30 0 c30 0 30 0 33 -62 3 -55 6 -63 22 -63 18 0 20 7 20 58 0 85 -16 102 -90 100 l-60 -2 0 -78z" style="paint-order: fill; fill: rgb(0, 231, 252);"/>
    <path d="M1970 2006 c0 -10 13 -16 37 -18 20 -2 38 -8 40 -15 3 -6 -4 -11 -14 -11 -40 3 -73 -12 -79 -37 -3 -14 -4 -32 0 -40 8 -22 47 -34 75 -24 15 6 28 6 36 -1 20 -16 22 -2 16 73 -7 76 -16 87 -73 87 -27 0 -38 -4 -38 -14z m77 -82 c2 -7 -4 -19 -13 -28 -19 -20 -38 -16 -42 9 -6 30 45 48 55 19z" style="paint-order: fill; fill: rgb(0, 231, 252);"/>
    <path d="M2440 2005 c0 -8 5 -15 10 -15 6 0 10 -28 10 -65 0 -58 2 -65 20 -65 18 0 20 7 20 80 l0 80 -30 0 c-20 0 -30 -5 -30 -15z" style="paint-order: fill; fill: rgb(0, 231, 252);"/>
    <path d="M2652 2000 c-46 -43 -24 -135 33 -140 54 -6 76 0 73 18 -2 13 -11 16 -36 14 -32 -3 -62 11 -62 29 0 5 27 9 60 9 57 0 60 1 60 25 0 58 -83 87 -128 45z m88 -25 c7 -8 11 -15 9 -16 -31 -6 -79 -2 -79 7 0 27 49 34 70 9z" style="paint-order: fill; fill: rgb(0, 231, 252);"/>
    <path d="M2815 2004 c-9 -9 -14 -23 -11 -31 3 -8 6 -16 6 -19 0 -2 19 -13 42 -25 39 -20 41 -22 24 -35 -14 -10 -24 -10 -39 -3 -15 8 -22 8 -28 -2 -13 -21 -1 -29 45 -29 77 0 92 60 24 93 -48 22 -49 37 -3 37 24 0 35 5 35 15 0 21 -73 20 -95 -1z" style="paint-order: fill; fill: rgb(0, 231, 252);"/>
    <path d="M3253 1936 c16 -48 33 -86 37 -86 5 0 16 23 26 50 10 28 21 50 24 50 3 0 16 -23 28 -52 12 -28 25 -49 29 -45 3 4 17 37 30 73 12 37 28 73 34 80 9 11 6 14 -14 14 -21 0 -28 -7 -37 -37 -6 -21 -14 -45 -17 -53 -3 -9 -12 4 -22 34 -10 28 -22 51 -28 53 -6 2 -19 -20 -29 -49 l-17 -53 -17 50 c-12 36 -22 51 -37 53 -19 3 -19 0 10 -82z" style="paint-order: fill; fill: rgb(0, 231, 252);"/>
    <path d="M3490 2005 c0 -11 11 -15 39 -15 25 0 41 -5 45 -15 4 -12 -3 -15 -29 -15 -36 0 -75 -28 -75 -53 0 -26 26 -50 53 -48 15 1 35 2 45 3 9 1 24 -1 32 -3 8 -2 15 2 14 9 -1 6 -2 36 -2 66 -2 68 -18 86 -78 86 -32 0 -44 -4 -44 -15z m82 -71 c3 -3 4 -13 1 -24 -8 -30 -63 -34 -63 -5 0 22 47 44 62 29z" style="paint-order: fill; fill: rgb(0, 231, 252);"/>
    <path d="M3665 1938 c34 -86 35 -108 4 -108 -13 0 -19 -7 -19 -21 0 -16 4 -19 23 -13 36 11 44 22 75 102 46 120 46 122 25 122 -15 0 -24 -14 -38 -57 -19 -62 -16 -64 -49 20 -10 25 -21 37 -35 37 -18 0 -17 -5 14 -82z" style="paint-order: fill; fill: rgb(0, 231, 252);"/>
    <path d="M3367 1819 c7 -7 15 -10 18 -7 3 3 -2 9 -12 12 -14 6 -15 5 -6 -5z" style="paint-order: fill; fill: rgb(0, 231, 252);"/>
    <path d="M2150 1425 c0 -52 3 -65 16 -65 10 0 13 6 10 18 -5 14 2 20 26 27 62 19 43 85 -24 85 -28 0 -28 0 -28 -65z m54 39 c30 -12 12 -44 -25 -44 -10 0 -12 33 -2 43 8 8 8 8 27 1z" style="paint-order: fill; fill: rgb(0, 231, 252);"/>
    <path d="M2586 1438 c-10 -29 -21 -59 -23 -65 -3 -7 2 -13 11 -13 9 0 16 7 16 15 0 10 10 15 30 15 20 0 30 -5 30 -15 0 -8 7 -15 15 -15 12 0 11 11 -9 63 -12 34 -29 63 -37 65 -9 2 -21 -17 -33 -50z m47 -8 c4 -14 0 -20 -13 -20 -13 0 -16 6 -12 25 5 28 17 26 25 -5z" style="paint-order: fill; fill: rgb(0, 231, 252);"/>
    <path d="M2258 1425 c-8 -19 -9 -31 -1 -43 12 -20 61 -28 76 -13 8 8 2 11 -20 11 -18 0 -35 5 -38 10 -4 6 8 10 29 10 32 0 35 2 27 23 -13 34 -58 35 -73 2z m52 -5 c0 -5 -9 -10 -21 -10 -11 0 -17 5 -14 10 3 6 13 10 21 10 8 0 14 -4 14 -10z" style="paint-order: fill; fill: rgb(0, 231, 252);"/>
    <path d="M2351 1403 c-1 -32 3 -43 14 -43 10 0 15 10 15 35 0 24 5 35 15 35 8 0 15 4 15 8 0 5 -13 9 -28 9 -27 0 -29 -3 -31 -44z" style="paint-order: fill; fill: rgb(0, 231, 252);"/>
    <path d="M2692 1408 c3 -42 4 -43 41 -45 l37 -1 0 44 c0 32 -4 44 -14 44 -11 0 -13 -9 -9 -35 5 -31 3 -35 -17 -35 -20 0 -22 4 -18 35 3 25 0 35 -10 35 -9 0 -12 -12 -10 -42z" style="paint-order: fill; fill: rgb(0, 231, 252);"/>
    <path d="M2797 1443 c-14 -14 -6 -41 14 -46 28 -8 15 -27 -14 -20 -17 4 -19 3 -11 -6 18 -20 59 -9 62 15 2 15 -4 24 -20 29 -22 8 -22 8 5 12 15 2 25 9 22 14 -7 10 -48 12 -58 2z" style="paint-order: fill; fill: rgb(0, 231, 252);"/>
    <path d="M2460 1410 c0 -5 11 -10 25 -10 14 0 25 5 25 10 0 6 -11 10 -25 10 -14 0 -25 -4 -25 -10z" style="paint-order: fill; fill: rgb(0, 231, 252);"/>
    <path d="M3076 4493 c-12 -12 -6 -41 10 -47 21 -8 21 -8 27 14 5 20 -24 46 -37 33z" style="paint-order: fill; fill: rgb(0, 231, 252);"/>
    <path d="M1826 4448 c9 -30 8 -30 28 -22 9 3 16 15 16 25 0 14 -7 19 -26 19 -22 0 -24 -3 -18 -22z" style="paint-order: fill; fill: rgb(0, 231, 252);"/>
    <path d="M3147 4450 c-3 -13 1 -24 13 -30 15 -8 20 -6 25 11 5 14 2 25 -6 30 -21 13 -26 11 -32 -11z" style="paint-order: fill; fill: rgb(0, 231, 252);"/>
    <path d="M1754 4434 c-7 -3 -10 -14 -7 -24 6 -23 8 -23 33 -10 33 18 9 48 -26 34z" style="paint-order: fill; fill: rgb(0, 231, 252);"/>
    <path d="M3221 4421 c-10 -18 2 -31 29 -31 18 0 18 30 0 40 -15 8 -21 6 -29 -9z" style="paint-order: fill; fill: rgb(0, 231, 252);"/>
    <path d="M1682 4402 c-12 -8 -7 -42 7 -42 17 1 33 20 28 34 -7 18 -16 20 -35 8z" style="paint-order: fill; fill: rgb(0, 231, 252);"/>
    <path d="M3295 4389 c-5 -14 -2 -25 6 -30 21 -13 26 -11 32 11 3 13 -1 24 -13 30 -15 8 -20 6 -25 -11z" style="paint-order: fill; fill: rgb(0, 231, 252);"/>
    <path d="M1616 4367 c-14 -10 -16 -18 -9 -30 7 -14 12 -15 25 -5 10 8 13 20 9 31 -6 15 -9 16 -25 4z" style="paint-order: fill; fill: rgb(0, 231, 252);"/>
    <path d="M3366 4354 c-7 -19 1 -34 19 -34 18 0 28 32 13 42 -19 11 -25 10 -32 -8z" style="paint-order: fill; fill: rgb(0, 231, 252);"/>
    <path d="M1540 4325 c-13 -16 -6 -35 15 -35 18 0 26 15 19 34 -8 20 -18 20 -34 1z" style="paint-order: fill; fill: rgb(0, 231, 252);"/>
    <path d="M3436 4313 c-4 -9 -1 -20 6 -25 18 -11 24 -10 37 6 10 12 8 17 -8 25 -26 14 -28 14 -35 -6z" style="paint-order: fill; fill: rgb(0, 231, 252);"/>
    <path d="M1477 4289 c-14 -8 -15 -14 -6 -31 10 -18 13 -19 26 -5 21 21 5 50 -20 36z" style="paint-order: fill; fill: rgb(0, 231, 252);"/>
    <path d="M3506 4271 c-15 -16 -14 -18 7 -28 19 -9 26 -8 34 6 9 14 7 20 -7 29 -14 9 -21 7 -34 -7z" style="paint-order: fill; fill: rgb(0, 231, 252);"/>
    <path d="M1402 4238 c-19 -19 5 -40 30 -27 15 8 17 13 7 25 -14 17 -21 18 -37 2z" style="paint-order: fill; fill: rgb(0, 231, 252);"/>
    <path d="M3571 4226 c-9 -10 -8 -16 4 -26 13 -11 19 -10 33 4 15 15 15 18 2 26 -20 13 -26 12 -39 -4z" style="paint-order: fill; fill: rgb(0, 231, 252);"/>
    <path d="M1340 4196 c-10 -13 -10 -19 0 -32 12 -14 15 -14 29 0 14 15 14 17 0 32 -14 14 -17 14 -29 0z" style="paint-order: fill; fill: rgb(0, 231, 252);"/>
    <path d="M3641 4182 c-8 -15 -7 -23 5 -33 13 -10 17 -10 25 2 12 19 11 25 -5 38 -12 10 -17 8 -25 -7z" style="paint-order: fill; fill: rgb(0, 231, 252);"/>
    <path d="M1281 4146 c-14 -16 -9 -46 7 -46 21 0 32 26 19 44 -12 16 -14 16 -26 2z" style="paint-order: fill; fill: rgb(0, 231, 252);"/>
    <path d="M3701 4126 c-9 -10 -8 -16 4 -26 19 -16 41 1 32 24 -8 20 -21 20 -36 2z" style="paint-order: fill; fill: rgb(0, 231, 252);"/>
    <path d="M1211 4086 c-17 -20 13 -43 34 -26 12 10 13 16 4 26 -6 8 -15 14 -19 14 -4 0 -13 -6 -19 -14z" style="paint-order: fill; fill: rgb(0, 231, 252);"/>
    <path d="M3760 4075 c-10 -11 -9 -17 3 -29 13 -13 17 -13 31 3 12 13 13 20 4 29 -16 16 -23 15 -38 -3z" style="paint-order: fill; fill: rgb(0, 231, 252);"/>
    <path d="M1156 4035 c-17 -13 -17 -15 -2 -31 16 -16 19 -16 34 0 14 14 14 18 2 30 -13 13 -18 13 -34 1z" style="paint-order: fill; fill: rgb(0, 231, 252);"/>
    <path d="M3820 4025 c-9 -11 -11 -22 -4 -32 13 -21 25 -21 38 -1 8 14 7 21 -5 33 -14 15 -17 15 -29 0z" style="paint-order: fill; fill: rgb(0, 231, 252);"/>
    <path d="M1100 3976 c-10 -13 -10 -19 0 -32 12 -14 15 -14 29 0 14 15 14 17 0 32 -14 14 -17 14 -29 0z" style="paint-order: fill; fill: rgb(0, 231, 252);"/>
    <path d="M3871 3956 c-17 -20 13 -43 34 -26 12 10 13 16 4 26 -6 8 -15 14 -19 14 -4 0 -13 -6 -19 -14z" style="paint-order: fill; fill: rgb(0, 231, 252);"/>
    <path d="M1043 3912 c-9 -15 -7 -21 7 -30 25 -15 49 10 30 33 -16 19 -23 19 -37 -3z" style="paint-order: fill; fill: rgb(0, 231, 252);"/>
    <path d="M3931 3906 c-14 -16 -9 -46 7 -46 5 0 15 7 22 16 11 12 11 18 -2 30 -13 13 -16 13 -27 0z" style="paint-order: fill; fill: rgb(0, 231, 252);"/>
    <path d="M992 3850 c-15 -25 10 -49 33 -30 20 16 19 27 -3 39 -14 7 -21 5 -30 -9z" style="paint-order: fill; fill: rgb(0, 231, 252);"/>
    <path d="M3977 3839 c-14 -8 -16 -14 -6 -25 13 -16 19 -17 37 -6 7 5 10 16 6 25 -7 20 -12 20 -37 6z" style="paint-order: fill; fill: rgb(0, 231, 252);"/>
    <path d="M946 3784 c-7 -19 1 -34 19 -34 18 0 26 25 12 39 -15 15 -24 14 -31 -5z" style="paint-order: fill; fill: rgb(0, 231, 252);"/>
    <path d="M4023 3772 c-8 -5 -8 -12 3 -26 11 -15 16 -17 28 -7 27 23 0 53 -31 33z" style="paint-order: fill; fill: rgb(0, 231, 252);"/>
    <path d="M901 3716 c-10 -12 -8 -17 8 -25 22 -12 37 0 27 24 -7 19 -20 19 -35 1z" style="paint-order: fill; fill: rgb(0, 231, 252);"/>
    <path d="M4072 3707 c-16 -19 2 -40 27 -32 17 5 19 10 11 26 -12 22 -23 24 -38 6z" style="paint-order: fill; fill: rgb(0, 231, 252);"/>
    <path d="M861 3652 c-9 -18 -8 -23 8 -31 25 -14 38 16 17 37 -12 12 -15 12 -25 -6z" style="paint-order: fill; fill: rgb(0, 231, 252);"/>
    <path d="M4112 3637 c-16 -19 2 -40 27 -32 17 5 19 10 11 26 -12 22 -23 24 -38 6z" style="paint-order: fill; fill: rgb(0, 231, 252);"/>
    <path d="M821 3582 c-9 -18 -8 -23 8 -31 25 -14 38 16 17 37 -12 12 -15 12 -25 -6z" style="paint-order: fill; fill: rgb(0, 231, 252);"/>
    <path d="M4151 3567 c-8 -10 -7 -18 2 -31 12 -16 14 -16 26 -2 14 16 9 46 -7 46 -5 0 -15 -6 -21 -13z" style="paint-order: fill; fill: rgb(0, 231, 252);"/>
    <path d="M786 3514 c-9 -24 -7 -31 9 -38 8 -3 19 2 24 12 7 14 5 21 -9 30 -14 9 -19 8 -24 -4z" style="paint-order: fill; fill: rgb(0, 231, 252);"/>
    <path d="M4198 3502 c-19 -4 -22 -11 -12 -35 5 -14 45 -12 43 2 -2 21 -16 36 -31 33z" style="paint-order: fill; fill: rgb(0, 231, 252);"/>
    <path d="M746 3434 c-8 -20 1 -34 20 -34 20 0 30 30 13 41 -20 12 -26 11 -33 -7z" style="paint-order: fill; fill: rgb(0, 231, 252);"/>
    <path d="M4227 3428 c-17 -12 -15 -48 2 -48 22 1 34 20 25 40 -8 18 -12 19 -27 8z" style="paint-order: fill; fill: rgb(0, 231, 252);"/>
    <path d="M716 3354 c-8 -20 -7 -21 19 -26 14 -2 20 3 20 17 0 25 -30 32 -39 9z" style="paint-order: fill; fill: rgb(0, 231, 252);"/>
    <path d="M4257 3352 c-12 -2 -16 -9 -13 -19 3 -8 6 -18 6 -23 0 -4 9 -6 20 -3 33 9 21 52 -13 45z" style="paint-order: fill; fill: rgb(0, 231, 252);"/>
    <path d="M690 3280 c-5 -9 -6 -20 -3 -24 7 -7 43 -8 43 -2 0 2 3 11 6 19 8 22 -34 29 -46 7z" style="paint-order: fill; fill: rgb(0, 231, 252);"/>
    <path d="M4283 3273 c-15 -5 -18 -43 -4 -43 24 0 38 13 34 31 -5 20 -9 21 -30 12z" style="paint-order: fill; fill: rgb(0, 231, 252);"/>
    <path d="M666 3203 c-7 -17 9 -33 32 -33 18 0 15 37 -4 44 -21 8 -21 8 -28 -11z" style="paint-order: fill; fill: rgb(0, 231, 252);"/>
    <path d="M4296 3191 c-11 -18 5 -39 25 -34 13 4 18 11 15 20 -3 8 -6 17 -6 19 0 8 -29 4 -34 -5z" style="paint-order: fill; fill: rgb(0, 231, 252);"/>
    <path d="M646 3124 c-9 -23 -8 -24 19 -24 18 0 25 5 25 20 0 24 -35 28 -44 4z" style="paint-order: fill; fill: rgb(0, 231, 252);"/>
    <path d="M4310 3100 c0 -15 7 -20 26 -20 20 0 25 4 20 16 -3 9 -6 18 -6 20 0 2 -9 4 -20 4 -13 0 -20 -7 -20 -20z" style="paint-order: fill; fill: rgb(0, 231, 252);"/>
    <path d="M627 3040 c-4 -16 0 -20 19 -20 17 0 24 6 24 20 0 13 -7 20 -19 20 -10 0 -21 -9 -24 -20z" style="paint-order: fill; fill: rgb(0, 231, 252);"/>
    <path d="M4330 3020 c0 -13 7 -20 20 -20 13 0 20 7 20 20 0 13 -7 20 -20 20 -13 0 -20 -7 -20 -20z" style="paint-order: fill; fill: rgb(0, 231, 252);"/>
    <path d="M610 2960 c0 -15 7 -20 25 -20 18 0 25 5 25 20 0 15 -7 20 -25 20 -18 0 -25 -5 -25 -20z" style="paint-order: fill; fill: rgb(0, 231, 252);"/>
    <path d="M4353 2963 c-21 -8 -15 -43 7 -43 15 0 20 7 20 25 0 25 -4 28 -27 18z" style="paint-order: fill; fill: rgb(0, 231, 252);"/>
    <path d="M600 2881 c0 -10 9 -21 19 -24 24 -6 31 0 31 25 0 13 -7 18 -25 18 -18 0 -25 -5 -25 -19z" style="paint-order: fill; fill: rgb(0, 231, 252);"/>
    <path d="M4368 2883 c-25 -6 -23 -43 2 -43 15 0 20 7 20 25 0 14 -1 24 -2 24 -2 -1 -11 -3 -20 -6z" style="paint-order: fill; fill: rgb(0, 231, 252);"/>
    <path d="M600 2800 c0 -13 7 -20 20 -20 13 0 20 7 20 20 0 13 -7 20 -20 20 -13 0 -20 -7 -20 -20z" style="paint-order: fill; fill: rgb(0, 231, 252);"/>
    <path d="M4357 2794 c-11 -11 5 -34 24 -34 12 0 19 7 19 20 0 19 -28 28 -43 14z" style="paint-order: fill; fill: rgb(0, 231, 252);"/>
    <path d="M594 2723 c3 -38 46 -40 46 -2 0 13 -7 19 -24 19 -17 0 -23 -5 -22 -17z" style="paint-order: fill; fill: rgb(0, 231, 252);"/>
    <path d="M4360 2700 c0 -13 7 -20 20 -20 13 0 20 7 20 20 0 13 -7 20 -20 20 -13 0 -20 -7 -20 -20z" style="paint-order: fill; fill: rgb(0, 231, 252);"/>
    <path d="M598 2654 c-3 -3 -4 -13 -1 -23 6 -25 43 -16 43 10 0 18 -29 27 -42 13z" style="paint-order: fill; fill: rgb(0, 231, 252);"/>
    <path d="M4360 2620 c0 -13 7 -20 20 -20 13 0 20 7 20 20 0 13 -7 20 -20 20 -13 0 -20 -7 -20 -20z" style="paint-order: fill; fill: rgb(0, 231, 252);"/>
    <path d="M600 2555 c0 -27 1 -28 24 -19 24 9 20 44 -4 44 -15 0 -20 -7 -20 -25z" style="paint-order: fill; fill: rgb(0, 231, 252);"/>
    <path d="M4350 2540 c0 -13 7 -20 19 -20 10 0 21 9 24 20 4 16 0 20 -19 20 -17 0 -24 -6 -24 -20z" style="paint-order: fill; fill: rgb(0, 231, 252);"/>
    <path d="M600 2480 c0 -15 7 -20 25 -20 18 0 25 5 25 20 0 15 -7 20 -25 20 -18 0 -25 -5 -25 -20z" style="paint-order: fill; fill: rgb(0, 231, 252);"/>
    <path d="M4346 2464 c-8 -20 -7 -21 19 -26 14 -2 21 3 23 20 3 16 -2 22 -16 22 -11 0 -23 -7 -26 -16z" style="paint-order: fill; fill: rgb(0, 231, 252);"/>
    <path d="M616 2411 c-10 -16 6 -42 21 -37 8 3 17 6 19 6 2 0 4 9 4 20 0 21 -33 29 -44 11z" style="paint-order: fill; fill: rgb(0, 231, 252);"/>
    <path d="M4337 2393 c-13 -13 -7 -31 13 -36 11 -3 20 -1 20 3 0 5 3 15 6 24 4 11 0 16 -13 16 -11 0 -23 -3 -26 -7z" style="paint-order: fill; fill: rgb(0, 231, 252);"/>
    <path d="M632 2323 c4 -24 38 -26 38 -2 0 13 -7 19 -21 19 -14 0 -19 -5 -17 -17z" style="paint-order: fill; fill: rgb(0, 231, 252);"/>
    <path d="M957 1599 c-14 -8 -15 -13 -5 -29 9 -14 16 -16 25 -8 27 22 11 54 -20 37z" style="paint-order: fill; fill: rgb(0, 231, 252);"/>
    <path d="M3993 1581 c-9 -14 -7 -20 9 -30 17 -11 22 -10 29 1 13 19 11 26 -9 37 -14 7 -21 5 -29 -8z" style="paint-order: fill; fill: rgb(0, 231, 252);"/>
    <path d="M1001 1531 c-12 -8 -12 -12 -2 -25 10 -12 17 -13 31 -3 14 8 16 15 8 24 -12 15 -18 16 -37 4z" style="paint-order: fill; fill: rgb(0, 231, 252);"/>
    <path d="M3941 1516 c-18 -22 23 -43 44 -23 10 11 11 17 2 26 -15 15 -32 14 -46 -3z" style="paint-order: fill; fill: rgb(0, 231, 252);"/>
    <path d="M1052 1468 c-19 -19 5 -40 30 -27 15 8 17 13 7 25 -14 17 -21 18 -37 2z" style="paint-order: fill; fill: rgb(0, 231, 252);"/>
    <path d="M3891 1456 c-18 -22 11 -41 37 -25 19 12 19 14 4 26 -22 16 -27 16 -41 -1z" style="paint-order: fill; fill: rgb(0, 231, 252);"/>
    <path d="M1106 1411 c-7 -11 3 -41 13 -41 18 0 30 24 20 37 -13 15 -26 17 -33 4z" style="paint-order: fill; fill: rgb(0, 231, 252);"/>
    <path d="M3841 1396 c-17 -20 13 -43 34 -26 12 10 13 16 4 26 -6 8 -15 14 -19 14 -4 0 -13 -6 -19 -14z" style="paint-order: fill; fill: rgb(0, 231, 252);"/>
    <path d="M1160 1354 c-11 -12 -10 -18 3 -32 16 -15 18 -15 33 0 15 15 15 18 1 32 -19 20 -21 20 -37 0z" style="paint-order: fill; fill: rgb(0, 231, 252);"/>
    <path d="M3786 1341 c-7 -11 3 -41 13 -41 18 0 30 24 20 37 -13 15 -26 17 -33 4z" style="paint-order: fill; fill: rgb(0, 231, 252);"/>
    <path d="M1221 1296 c-17 -20 13 -43 34 -26 12 10 13 16 4 26 -6 8 -15 14 -19 14 -4 0 -13 -6 -19 -14z" style="paint-order: fill; fill: rgb(0, 231, 252);"/>
    <path d="M3731 1291 c-8 -5 -11 -16 -8 -25 7 -18 16 -20 37 -6 13 8 13 11 0 24 -10 10 -20 12 -29 7z" style="paint-order: fill; fill: rgb(0, 231, 252);"/>
    <path d="M1282 1248 c-9 -9 -8 -16 5 -30 15 -17 17 -17 29 0 9 12 9 21 2 29 -13 16 -21 16 -36 1z" style="paint-order: fill; fill: rgb(0, 231, 252);"/>
    <path d="M3671 1241 c-8 -5 -11 -16 -6 -30 8 -25 18 -27 35 -5 11 12 11 18 -1 29 -9 9 -19 11 -28 6z" style="paint-order: fill; fill: rgb(0, 231, 252);"/>
    <path d="M1346 1193 c-4 -9 -1 -23 7 -30 12 -12 16 -12 27 1 10 13 10 19 0 31 -16 19 -26 19 -34 -2z" style="paint-order: fill; fill: rgb(0, 231, 252);"/>
    <path d="M3600 1185 c-19 -23 5 -48 30 -33 14 9 16 15 7 30 -14 22 -21 22 -37 3z" style="paint-order: fill; fill: rgb(0, 231, 252);"/>
    <path d="M1412 1149 c-11 -18 -11 -23 5 -34 16 -12 19 -11 27 6 7 14 5 24 -5 34 -13 13 -16 12 -27 -6z" style="paint-order: fill; fill: rgb(0, 231, 252);"/>
    <path d="M3534 1135 c-6 -15 2 -35 14 -35 18 1 32 18 26 33 -8 21 -33 22 -40 2z" style="paint-order: fill; fill: rgb(0, 231, 252);"/>
    <path d="M1476 1104 c-6 -16 9 -44 24 -44 14 0 20 32 9 46 -15 18 -25 18 -33 -2z" style="paint-order: fill; fill: rgb(0, 231, 252);"/>
    <path d="M3471 1096 c-11 -14 -5 -46 9 -46 15 0 30 28 24 44 -8 20 -18 20 -33 2z" style="paint-order: fill; fill: rgb(0, 231, 252);"/>
    <path d="M1543 1054 c-5 -14 11 -33 28 -34 10 0 20 31 13 41 -9 15 -34 10 -41 -7z" style="paint-order: fill; fill: rgb(0, 231, 252);"/>
    <path d="M3400 1056 c-7 -10 -8 -21 -3 -31 13 -22 47 3 37 28 -8 21 -18 22 -34 3z" style="paint-order: fill; fill: rgb(0, 231, 252);"/>
    <path d="M1616 1024 c-6 -16 9 -44 24 -44 4 0 10 9 13 20 7 26 -28 48 -37 24z" style="paint-order: fill; fill: rgb(0, 231, 252);"/>
    <path d="M3331 1021 c-17 -11 -7 -41 13 -41 19 0 28 14 20 34 -7 18 -13 19 -33 7z" style="paint-order: fill; fill: rgb(0, 231, 252);"/>
    <path d="M1686 983 c-6 -15 8 -32 25 -33 14 0 19 34 7 42 -19 11 -25 10 -32 -9z" style="paint-order: fill; fill: rgb(0, 231, 252);"/>
    <path d="M3254 975 c-8 -21 3 -34 25 -28 13 3 17 11 14 24 -6 22 -31 25 -39 4z" style="paint-order: fill; fill: rgb(0, 231, 252);"/>
    <path d="M1760 950 c-8 -15 -6 -20 11 -25 14 -5 25 -2 30 6 13 21 11 26 -11 32 -13 3 -24 -1 -30 -13z" style="paint-order: fill; fill: rgb(0, 231, 252);"/>
    <path d="M3182 952 c-12 -8 -7 -42 7 -42 17 1 31 18 25 33 -7 19 -13 20 -32 9z" style="paint-order: fill; fill: rgb(0, 231, 252);"/>
    <path d="M1837 921 c-4 -18 10 -31 34 -31 16 0 10 38 -7 44 -21 8 -21 8 -27 -13z" style="paint-order: fill; fill: rgb(0, 231, 252);"/>
    <path d="M3104 915 c-9 -21 3 -34 27 -28 12 4 18 11 15 20 -3 8 -6 17 -6 19 0 11 -31 2 -36 -11z" style="paint-order: fill; fill: rgb(0, 231, 252);"/>
    <path d="M1913 894 c-5 -14 11 -33 28 -34 10 0 20 31 13 41 -9 15 -34 10 -41 -7z" style="paint-order: fill; fill: rgb(0, 231, 252);"/>
    <path d="M3032 902 c-15 -10 -5 -42 13 -42 18 0 26 15 19 34 -7 18 -13 19 -32 8z" style="paint-order: fill; fill: rgb(0, 231, 252);"/>
    <path d="M1990 870 c0 -11 2 -20 4 -20 2 0 11 -3 19 -6 9 -3 16 2 20 15 3 12 -1 22 -10 25 -25 10 -33 7 -33 -14z" style="paint-order: fill; fill: rgb(0, 231, 252);"/>
    <path d="M2944 864 c3 -9 6 -18 6 -20 0 -2 9 -4 20 -4 13 0 20 7 20 20 0 15 -7 20 -26 20 -20 0 -25 -4 -20 -16z" style="paint-order: fill; fill: rgb(0, 231, 252);"/>
    <path d="M2067 851 c-3 -13 1 -21 15 -24 20 -6 35 14 23 33 -10 17 -32 12 -38 -9z" style="paint-order: fill; fill: rgb(0, 231, 252);"/>
    <path d="M2877 863 c-11 -3 -16 -10 -13 -20 3 -8 6 -17 6 -19 0 -6 36 -5 42 2 7 7 -2 44 -11 43 -3 -1 -14 -3 -24 -6z" style="paint-order: fill; fill: rgb(0, 231, 252);"/>
    <path d="M2150 850 c0 -5 -3 -15 -6 -24 -5 -12 0 -16 20 -16 32 0 37 35 6 43 -11 3 -20 1 -20 -3z" style="paint-order: fill; fill: rgb(0, 231, 252);"/>
    <path d="M2790 826 c0 -19 4 -23 20 -19 11 3 20 14 20 24 0 12 -7 19 -20 19 -14 0 -20 -7 -20 -24z" style="paint-order: fill; fill: rgb(0, 231, 252);"/>
    <path d="M2226 824 c-9 -23 -8 -24 19 -24 18 0 25 5 25 20 0 24 -35 28 -44 4z" style="paint-order: fill; fill: rgb(0, 231, 252);"/>
    <path d="M2710 815 c0 -27 1 -28 24 -19 24 9 20 44 -4 44 -15 0 -20 -7 -20 -25z" style="paint-order: fill; fill: rgb(0, 231, 252);"/>
    <path d="M2303 810 c-1 -15 4 -20 23 -20 17 0 24 5 24 20 0 14 -7 20 -23 20 -16 0 -23 -6 -24 -20z" style="paint-order: fill; fill: rgb(0, 231, 252);"/>
    <path d="M2387 811 c-6 -24 0 -31 25 -31 13 0 18 7 18 25 0 31 -35 35 -43 6z" style="paint-order: fill; fill: rgb(0, 231, 252);"/>
    <path d="M2568 823 c-25 -6 -23 -43 2 -43 15 0 20 7 20 25 0 14 -1 24 -2 24 -2 -1 -11 -3 -20 -6z" style="paint-order: fill; fill: rgb(0, 231, 252);"/>
    <path d="M2630 810 c0 -13 7 -20 20 -20 13 0 20 7 20 20 0 13 -7 20 -20 20 -13 0 -20 -7 -20 -20z" style="paint-order: fill; fill: rgb(0, 231, 252);"/>
    <path d="M2470 800 c0 -13 7 -20 20 -20 13 0 20 7 20 20 0 13 -7 20 -20 20 -13 0 -20 -7 -20 -20z" style="paint-order: fill; fill: rgb(0, 231, 252);"/>
  </g>
</svg>